<?xml version="1.0" encoding="UTF-8" standalone="no"?>
<!-- Created with Inkscape (http://www.inkscape.org/) -->

<svg
   xmlns:dc="http://purl.org/dc/elements/1.1/"
   xmlns:cc="http://creativecommons.org/ns#"
   xmlns:rdf="http://www.w3.org/1999/02/22-rdf-syntax-ns#"
   xmlns:svg="http://www.w3.org/2000/svg"
   xmlns="http://www.w3.org/2000/svg"
   xmlns:sodipodi="http://sodipodi.sourceforge.net/DTD/sodipodi-0.dtd"
   xmlns:inkscape="http://www.inkscape.org/namespaces/inkscape"
   width="300"
   height="200"
   id="svg2"
   version="1.1"
   inkscape:version="0.48.4 r9939"
   sodipodi:docname="Logo.svg">
  <defs
     id="defs4">
    <inkscape:perspective
       sodipodi:type="inkscape:persp3d"
       inkscape:vp_x="0 : 526.18109 : 1"
       inkscape:vp_y="0 : 1000 : 0"
       inkscape:vp_z="744.09448 : 526.18109 : 1"
       inkscape:persp3d-origin="372.04724 : 350.78739 : 1"
       id="perspective2997" />
  </defs>
  <sodipodi:namedview
     id="base"
     pagecolor="#ffffff"
     bordercolor="#666666"
     borderopacity="1.0"
     inkscape:pageopacity="0.0"
     inkscape:pageshadow="2"
     inkscape:zoom="0.98994949"
     inkscape:cx="122.16195"
     inkscape:cy="115.37302"
     inkscape:document-units="px"
     inkscape:current-layer="layer1"
     showgrid="false"
     inkscape:window-width="1366"
     inkscape:window-height="713"
     inkscape:window-x="0"
     inkscape:window-y="0"
     inkscape:window-maximized="1"
     fit-margin-top="0"
     fit-margin-left="0"
     fit-margin-right="0"
     fit-margin-bottom="0" />
  <metadata
     id="metadata7">
    <rdf:RDF>
      <cc:Work
         rdf:about="">
        <dc:format>image/svg+xml</dc:format>
        <dc:type
           rdf:resource="http://purl.org/dc/dcmitype/StillImage" />
        <dc:title></dc:title>
      </cc:Work>
    </rdf:RDF>
  </metadata>
  <g
     inkscape:label="Layer 1"
     inkscape:groupmode="layer"
     id="layer1"
     transform="translate(-170.55106,-415.80889)">
    <path
       style="fill:#ff0000;stroke:none"
       d="m 368.17606,432.98077 -62.125,66.90625 c 1.9221,-0.81791 4.2058,-1.24999 6.90625,-1.25 2.04686,4e-5 4.17185,0.18754 6.375,0.53125 2.21873,0.34378 4.53122,0.84378 6.90625,1.53125 l 0,6.71875 50.46875,-64.09375 -8.53125,-10.34375 z m -41.9375,74.4375 -0.8125,1.03125 0.8125,0 0,-1.03125 z m -0.8125,1.03125 -2.15625,0 c -0.45315,-2.40622 -1.46878,-4.17185 -3,-5.28125 -1.53127,-1.12497 -3.70314,-1.68747 -6.53125,-1.6875 -2.31251,3e-5 -4.06251,0.40628 -5.25,1.21875 -1.17189,0.79691 -1.75001,2.00003 -1.75,3.59375 -1e-5,1.45315 0.40624,2.5469 1.21875,3.3125 0.81249,0.75001 2.79686,1.53126 5.96875,2.34375 l 5.25,1.3125 c 0.70834,0.17709 1.37702,0.3736 2,0.59375 l 4.25,-5.40625 z m -4.25,5.40625 -6,7.59375 c 2.21241,0.60861 3.76649,1.24229 4.53125,1.9375 0.85935,0.78125 1.28123,1.875 1.28125,3.28125 -2e-5,1.78125 -0.64065,3.14062 -1.90625,4.0625 -1.26565,0.92187 -3.10939,1.375 -5.53125,1.375 -2.33474,0 -4.27149,-0.39378 -5.8125,-1.1875 l -2.4375,3.0625 c 0.64241,0.14292 1.30133,0.26455 1.9375,0.375 2.24999,0.39062 4.49998,0.59375 6.78125,0.59375 4.73435,0 8.31247,-0.92188 10.75,-2.75 2.43747,-1.84375 3.65622,-4.53125 3.65625,-8.0625 -3e-5,-3.01562 -0.71878,-5.37499 -2.1875,-7.09375 -1.13644,-1.34413 -2.82713,-2.39761 -5.0625,-3.1875 z m -15.875,20.125 c -1.62968,-0.36257 -3.26763,-0.83469 -4.9375,-1.40625 l 0,-8.28125 2.96875,0 c 0.45312,2.625 1.53124,4.57812 3.21875,5.875 0.36734,0.28231 0.75871,0.52914 1.1875,0.75 l 7.4375,-9.46875 c -0.27377,-0.0753 -0.51657,-0.14477 -0.8125,-0.21875 l -5.25,-1.3125 c -3.42188,-0.87499 -5.82813,-2.07812 -7.21875,-3.625 -1.39063,-1.56249 -2.0625,-3.78124 -2.0625,-6.65625 0,-1.289 0.15157,-2.45586 0.46875,-3.53125 l -12.09375,13 0,2.25 -2.09375,0 -9,9.71875 13.90625,0 0,-5.0625 3.1875,0 0,8.25 -20.0625,0 -19.09375,20.5625 -37.8125,-27.09375 0,6.53125 -17.78125,0 54.9375,64.375 50.90625,-64.65625 z m -105.84375,0.28125 -5.5625,-6.5 6.375,-5.03125 0,-20.625 4.5,0 0,-2.8125 -18,0 0,2.8125 4.5,0 0,29.34375 -4.5,0 0,2.8125 12.6875,0 z m 0.8125,-11.53125 0,8.34375 13.78125,0 0,-5.53125 0.15625,0 -9.15625,-6.5625 -4.78125,3.75 z m 13.9375,2.8125 3.03125,2.1875 0,-2.1875 -3.03125,0 z m 59.9375,8.71875 2.96875,-3.1875 -1.28125,0 0,-14.15625 9.1875,0 0,4.4375 1.09375,0 2.09375,-2.25 0,-9.84375 -3.1875,0 0,4.46875 -9.1875,0 0,-11.25 14.71875,0 0,5.0625 3.25,0 0,-8.25 -31.46875,0 0,2.8125 4.5,0 0,29.34375 -4.5,0 0,2.8125 11.8125,0 z m 31.90625,-34.375 c -1.03621,0.44092 -1.97125,0.97761 -2.78125,1.65625 -1.43555,1.20119 -2.43042,2.72583 -2.96875,4.53125 l 5.75,-6.1875 z m -66.875,-1.25 c -5.87502,4e-5 -10.51564,1.64066 -13.875,4.875 -3.34375,3.21878 -5,7.65626 -5,13.3125 0,5.65625 1.65625,10.09375 5,13.3125 3.34374,3.21875 7.98436,4.8125 13.875,4.8125 5.87497,0 10.46872,-1.59375 13.8125,-4.8125 3.35934,-3.21875 5.03121,-7.65625 5.03125,-13.3125 -4e-5,-5.67185 -1.65629,-10.12497 -5,-13.34375 -3.34378,-3.21872 -7.95315,-4.84371 -13.84375,-4.84375 z m 199.25,0 c -6.00002,4e-5 -10.71876,1.64066 -14.15625,4.875 -3.42188,3.2344 -5.125,7.6719 -5.125,13.3125 0,5.625 1.70312,10.04687 5.125,13.28125 3.43749,3.23437 8.15623,4.84375 14.15625,4.84375 2.73435,0 5.42185,-0.28125 8.03125,-0.875 2.62497,-0.59375 5.24997,-1.5 7.875,-2.71875 l 0,-13.4375 -12.625,0 0,2.8125 4.21875,0 0,9.59375 c -0.9219,0.59375 -1.93753,1.04687 -3.0625,1.34375 -1.12502,0.29687 -2.34377,0.4375 -3.65625,0.4375 -3.43752,0 -5.96877,-1.21875 -7.59375,-3.6875 -1.62501,-2.48438 -2.43751,-6.34375 -2.4375,-11.59375 -1e-5,-5.29685 0.84374,-9.17185 2.53125,-11.625 1.70311,-2.46872 4.37498,-3.71872 8,-3.71875 2.98435,3e-5 5.29685,0.70316 6.9375,2.09375 1.64059,1.37503 2.79684,3.59378 3.5,6.6875 l 2.96875,0 0,-8.59375 c -2.45316,-1.01559 -4.89066,-1.78122 -7.3125,-2.28125 -2.4219,-0.49996 -4.87502,-0.74996 -7.375,-0.75 z m -105.4375,0.65625 0,2.8125 4.4375,0 0,17.96875 c -1e-5,5.32812 1.17187,9.14062 3.5,11.4375 2.32811,2.29687 6.20311,3.4375 11.625,3.4375 5.4531,0 9.34372,-1.14063 11.65625,-3.40625 2.31246,-2.28125 3.46871,-6.09375 3.46875,-11.4375 l 0,-18 4.46875,0 0,-2.8125 -12.1875,0 0,2.8125 4.46875,0 0,17.53125 c -3e-5,4.32813 -0.70316,7.35937 -2.0625,9.125 -1.34378,1.75 -3.62503,2.625 -6.84375,2.625 -3.2969,0 -5.60939,-0.85938 -6.96875,-2.59375 -1.35939,-1.75 -2.03127,-4.79687 -2.03125,-9.15625 l 0,-17.53125 4.46875,0 0,-2.8125 -18,0 z m 42.375,0 0,2.8125 4.46875,0 0,29.34375 -4.46875,0 0,2.8125 12.21875,0 0,-2.8125 -4.4375,0 0,-22.46875 21.4375,25.28125 6.15625,0 0,-32.15625 4.46875,0 0,-2.8125 -12.25,0 0,2.8125 4.46875,0 0,21.9375 -21.125,-24.75 -10.9375,0 z m -136.1875,2.1875 c 2.98435,3e-5 5.2031,1.26566 6.65625,3.78125 1.4531,2.51565 2.15622,6.37501 2.15625,11.5625 -3e-5,5.17188 -0.70315,9.01562 -2.15625,11.53125 -1.45315,2.51562 -3.6719,3.75 -6.65625,3.75 -2.96877,0 -5.18752,-1.25 -6.65625,-3.78125 -1.45314,-2.54688 -2.18751,-6.375 -2.1875,-11.5 -1e-5,-5.1406 0.73436,-8.99997 2.1875,-11.53125 1.46873,-2.54684 3.68748,-3.81247 6.65625,-3.8125 z"
       id="path3068"
       inkscape:connector-curvature="0" />
  </g>
</svg>
